<svg width="40" height="40" viewBox="0 0 40 40" fill="none" xmlns="http://www.w3.org/2000/svg">
<path d="M2.94873 32.4359V30.7693H37.0513V32.4359H2.94873ZM7.69231 29.1026C6.92523 29.1026 6.28474 28.8456 5.77086 28.3318C5.25697 27.8179 5.00002 27.1774 5.00002 26.4103V10.1282C5.00002 9.36111 5.25697 8.7206 5.77086 8.20672C6.28474 7.69283 6.92523 7.43588 7.69231 7.43588H32.3077C33.0748 7.43588 33.7153 7.69283 34.2292 8.20672C34.7431 8.7206 35 9.36111 35 10.1282V26.4103C35 27.1774 34.7431 27.8179 34.2292 28.3318C33.7153 28.8456 33.0748 29.1026 32.3077 29.1026H7.69231ZM7.69231 27.4359H32.3077C32.5641 27.4359 32.7992 27.3291 33.0129 27.1154C33.2265 26.9017 33.3334 26.6667 33.3334 26.4103V10.1282C33.3334 9.8718 33.2265 9.63676 33.0129 9.42309C32.7992 9.2094 32.5641 9.10255 32.3077 9.10255H7.69231C7.43593 9.10255 7.20088 9.2094 6.98719 9.42309C6.77352 9.63676 6.66669 9.8718 6.66669 10.1282V26.4103C6.66669 26.6667 6.77352 26.9017 6.98719 27.1154C7.20088 27.3291 7.43593 27.4359 7.69231 27.4359Z" fill="#222222"/>
</svg>
