<svg width="30" height="30" viewBox="0 0 30 30" fill="none" xmlns="http://www.w3.org/2000/svg">
<path d="M9.51922 25C8.95993 25 8.48356 24.8033 8.09013 24.4099C7.69671 24.0164 7.5 23.5401 7.5 22.9808V7.5H6.25V6.25H11.25V5.28844H18.75V6.25H23.75V7.5H22.5V22.9808C22.5 23.5561 22.3073 24.0365 21.9219 24.4219C21.5365 24.8073 21.0561 25 20.4808 25H9.51922ZM21.25 7.5H8.75V22.9808C8.75 23.2051 8.82211 23.3894 8.96634 23.5337C9.11057 23.6779 9.29486 23.75 9.51922 23.75H20.4808C20.6731 23.75 20.8494 23.6699 21.0096 23.5096C21.1699 23.3494 21.25 23.1731 21.25 22.9808V7.5ZM12.2596 21.25H13.5096V10H12.2596V21.25ZM16.4904 21.25H17.7404V10H16.4904V21.25Z" fill="#222222"/>
</svg>
