<svg width="40" height="40" viewBox="0 0 40 40" fill="none" xmlns="http://www.w3.org/2000/svg">
<path d="M20.1281 31.6667C16.8711 31.6667 14.1125 30.537 11.8521 28.2776C9.59163 26.0181 8.46143 23.2607 8.46143 20.0051C8.46143 16.7496 9.59163 13.9904 11.8521 11.7276C14.1125 9.46478 16.8711 8.33337 20.1281 8.33337C22.1089 8.33337 23.9636 8.80398 25.6922 9.74521C27.4208 10.6865 28.814 12 29.8717 13.6859V8.33337H31.5383V17.0513H22.8204V15.3847H28.9871C28.1195 13.7223 26.8989 12.4092 25.3252 11.4455C23.7515 10.4819 22.0191 10 20.1281 10C17.3503 10 14.9892 10.9723 13.0448 12.9167C11.1003 14.8612 10.1281 17.2223 10.1281 20C10.1281 22.7778 11.1003 25.1389 13.0448 27.0834C14.9892 29.0278 17.3503 30 20.1281 30C22.267 30 24.1975 29.3889 25.9198 28.1667C27.642 26.9445 28.8503 25.3334 29.5448 23.3334H31.314C30.579 25.8291 29.1826 27.8419 27.1249 29.3718C25.0672 30.9017 22.7349 31.6667 20.1281 31.6667Z" fill="#222222"/>
</svg>
