<svg width="40" height="40" viewBox="0 0 40 40" fill="none" xmlns="http://www.w3.org/2000/svg">
<path d="M12.6923 36.6667C11.9252 36.6667 11.2847 36.4097 10.7708 35.8958C10.2569 35.382 10 34.7415 10 33.9744V6.02564C10 5.25855 10.2569 4.61807 10.7708 4.10418C11.2847 3.59029 11.9252 3.33334 12.6923 3.33334H27.3077C28.0748 3.33334 28.7153 3.59029 29.2292 4.10418C29.7431 4.61807 30 5.25855 30 6.02564V33.9744C30 34.7415 29.7431 35.382 29.2292 35.8958C28.7153 36.4097 28.0748 36.6667 27.3077 36.6667H12.6923ZM11.6667 32.5V33.9744C11.6667 34.2308 11.7735 34.4658 11.9872 34.6795C12.2009 34.8932 12.4359 35 12.6923 35H27.3077C27.5641 35 27.7991 34.8932 28.0128 34.6795C28.2265 34.4658 28.3333 34.2308 28.3333 33.9744V32.5H11.6667ZM11.6667 30.8333H28.3333V9.16668H11.6667V30.8333ZM11.6667 7.50001H28.3333V6.02564C28.3333 5.76925 28.2265 5.53421 28.0128 5.32051C27.7991 5.10684 27.5641 5.00001 27.3077 5.00001H12.6923C12.4359 5.00001 12.2009 5.10684 11.9872 5.32051C11.7735 5.53421 11.6667 5.76925 11.6667 6.02564V7.50001Z" fill="#222222"/>
</svg>
