<svg width="40" height="40" viewBox="0 0 40 40" fill="none" xmlns="http://www.w3.org/2000/svg">
<path d="M21.6667 33.3975V30.3846H24.6795V33.3975H21.6667ZM18.6538 30.3846V23.0128H21.6667V30.3846H18.6538ZM30.3846 24.7436V20H33.3975V24.7436H30.3846ZM27.3718 20V16.9872H30.3846V20H27.3718ZM9.61537 23.0128V20H12.6282V23.0128H9.61537ZM6.60254 20V16.9872H9.61537V20H6.60254ZM20 9.61537V6.60254H23.0128V9.61537H20ZM8.07691 14.1667H14.1667V8.07691H8.07691V14.1667ZM6.60254 15.641V6.60254H15.641V15.641H6.60254ZM8.07691 31.9231H14.4231V25.8333H8.07691V31.9231ZM6.60254 33.3975V24.359H15.8974V33.3975H6.60254ZM25.8333 14.1667H31.9231V8.07691H25.8333V14.1667ZM24.359 15.641V6.60254H33.3975V15.641H24.359ZM27.3718 33.3975V27.7564H24.359V24.7436H30.3846V30.3846H33.3975V33.3975H27.3718ZM21.6667 23.0128V20H27.3718V23.0128H21.6667ZM15.641 23.0128V20H12.6282V16.9872H21.6667V20H18.6538V23.0128H15.641ZM16.9872 15.641V9.61537H20V12.6282H23.0128V15.641H16.9872ZM10.0641 12.1795V10.0641H12.1795V12.1795H10.0641ZM10.2885 29.7115V27.5962H12.4038V29.7115H10.2885ZM27.8205 12.1795V10.0641H29.9359V12.1795H27.8205Z" fill="#222222"/>
</svg>
