<svg width="40" height="40" viewBox="0 0 40 40" fill="none" xmlns="http://www.w3.org/2000/svg">
<path d="M30.0037 35.8333C28.8473 35.8333 27.8632 35.4282 27.0512 34.618C26.2392 33.8078 25.8333 32.824 25.8333 31.6666C25.8333 31.445 25.8525 31.2154 25.891 30.978C25.9294 30.7405 25.9871 30.5171 26.064 30.3077L13.1602 22.7051C12.7521 23.1645 12.2777 23.5229 11.7371 23.7804C11.1965 24.0379 10.6174 24.1666 9.99992 24.1666C8.8425 24.1666 7.85871 23.7619 7.04854 22.9525C6.23835 22.143 5.83325 21.1601 5.83325 20.0037C5.83325 18.8473 6.23835 17.8632 7.04854 17.0513C7.85871 16.2393 8.8425 15.8333 9.99992 15.8333C10.6174 15.8333 11.1965 15.962 11.7371 16.2195C12.2777 16.477 12.7521 16.8354 13.1602 17.2948L26.064 9.69225C25.9871 9.48286 25.9294 9.25943 25.891 9.02196C25.8525 8.78449 25.8333 8.55493 25.8333 8.33329C25.8333 7.17588 26.238 6.19208 27.0474 5.38192C27.8569 4.57172 28.8398 4.16663 29.9961 4.16663C31.1525 4.16663 32.1367 4.57135 32.9486 5.38079C33.7606 6.19027 34.1666 7.17317 34.1666 8.3295C34.1666 9.48589 33.7615 10.4701 32.9513 11.282C32.1411 12.094 31.1573 12.5 29.9999 12.5C29.3824 12.5 28.8033 12.3712 28.2628 12.1138C27.7221 11.8563 27.2478 11.4978 26.8397 11.0384L13.9358 18.641C14.0128 18.8504 14.0704 19.0731 14.1089 19.309C14.1474 19.545 14.1666 19.7731 14.1666 19.9933C14.1666 20.2136 14.1474 20.4439 14.1089 20.6842C14.0704 20.9246 14.0128 21.1495 13.9358 21.3589L26.8397 28.9615C27.2478 28.5021 27.7221 28.1436 28.2628 27.8862C28.8033 27.6287 29.3824 27.5 29.9999 27.5C31.1573 27.5 32.1411 27.9047 32.9513 28.7141C33.7615 29.5236 34.1666 30.5065 34.1666 31.6629C34.1666 32.8192 33.7619 33.8034 32.9524 34.6153C32.1429 35.4273 31.16 35.8333 30.0037 35.8333ZM29.9999 10.8333C30.6858 10.8333 31.2739 10.5881 31.7643 10.0977C32.2547 9.60732 32.4999 9.01918 32.4999 8.33329C32.4999 7.6474 32.2547 7.05926 31.7643 6.56888C31.2739 6.07849 30.6858 5.83329 29.9999 5.83329C29.314 5.83329 28.7259 6.07849 28.2355 6.56888C27.7451 7.05926 27.4999 7.6474 27.4999 8.33329C27.4999 9.01918 27.7451 9.60732 28.2355 10.0977C28.7259 10.5881 29.314 10.8333 29.9999 10.8333ZM9.99992 22.5C10.6858 22.5 11.2739 22.2548 11.7643 21.7644C12.2547 21.274 12.4999 20.6858 12.4999 20C12.4999 19.3141 12.2547 18.7259 11.7643 18.2355C11.2739 17.7452 10.6858 17.5 9.99992 17.5C9.31403 17.5 8.72589 17.7452 8.2355 18.2355C7.74511 18.7259 7.49992 19.3141 7.49992 20C7.49992 20.6858 7.74511 21.274 8.2355 21.7644C8.72589 22.2548 9.31403 22.5 9.99992 22.5ZM29.9999 34.1666C30.6858 34.1666 31.2739 33.9214 31.7643 33.431C32.2547 32.9407 32.4999 32.3525 32.4999 31.6666C32.4999 30.9807 32.2547 30.3926 31.7643 29.9022C31.2739 29.4118 30.6858 29.1666 29.9999 29.1666C29.314 29.1666 28.7259 29.4118 28.2355 29.9022C27.7451 30.3926 27.4999 30.9807 27.4999 31.6666C27.4999 32.3525 27.7451 32.9407 28.2355 33.431C28.7259 33.9214 29.314 34.1666 29.9999 34.1666Z" fill="#222222"/>
</svg>
